<?xml version="1.0" encoding="UTF-8" standalone="no"?> <svg id="Layer_1" data-name="Layer 1" xmlns="http://www.w3.org/2000/svg" viewBox="0 0 48 48"><defs><style>.cls-1{fill:#47caf0;}.cls-2{fill:#20aee1;}.cls-3{fill:#1761b2;}.cls-4{fill:#0d3b8d;}.cls-5{fill:#00286f;}.cls-6{fill:#ffc343;}.cls-7{fill:#ff3b65;}.cls-8{fill:#00f2ae;}.cls-9{fill:#08105e;}</style></defs><rect class="cls-1" x="4" y="5" width="40" height="30" rx="4"/><path class="cls-2" d="M7,31V9a4,4,0,0,1,4-4H8A4,4,0,0,0,4,9V31a4,4,0,0,0,4,4h3A4,4,0,0,1,7,31Z"/><circle class="cls-2" cx="36" cy="16" r="6"/><rect class="cls-2" x="8" y="14" width="6" height="8" rx="1.5"/><rect class="cls-2" x="15" y="9" width="6" height="13" rx="1.5"/><rect class="cls-2" x="22" y="12" width="6" height="10" rx="1.5"/><path class="cls-2" d="M40,23H32a1,1,0,0,0,0,2h8a1,1,0,0,0,0-2Z"/><path class="cls-2" d="M37,26H32a1,1,0,0,0,0,2h5a1,1,0,0,0,0-2Z"/><path class="cls-2" d="M9,25H27a1,1,0,0,0,0-2H9a1,1,0,0,0,0,2Z"/><path class="cls-2" d="M9,28H24a1,1,0,0,0,0-2H9a1,1,0,0,0,0,2Z"/><path class="cls-3" d="M44,30H4v1a4,4,0,0,0,4,4H40a4,4,0,0,0,4-4Z"/><path class="cls-4" d="M7,31V30H4v1a4,4,0,0,0,4,4h3A4,4,0,0,1,7,31Z"/><path class="cls-3" d="M10.667,39H37.333A2.667,2.667,0,0,1,40,41.667v0A1.333,1.333,0,0,1,38.667,43H9.333A1.333,1.333,0,0,1,8,41.667v0A2.667,2.667,0,0,1,10.667,39Z"/><path class="cls-4" d="M11,41.667A2.667,2.667,0,0,1,13.667,39h-3A2.667,2.667,0,0,0,8,41.667,1.333,1.333,0,0,0,9.333,43h3A1.333,1.333,0,0,1,11,41.667Z"/><rect class="cls-4" x="20" y="35" width="8" height="4"/><rect class="cls-5" x="20" y="35" width="3" height="4"/><circle class="cls-6" cx="35" cy="15" r="5"/><path class="cls-7" d="M39.4,17.32A4.942,4.942,0,0,0,40,15a5,5,0,0,0-5-5v5Z"/><rect class="cls-6" x="8" y="14" width="4" height="6" rx="0.5"/><rect class="cls-8" x="15" y="9" width="4" height="11" rx="0.5"/><rect class="cls-7" x="22" y="12" width="4" height="8" rx="0.5"/><path class="cls-9" d="M40,4H8A5.006,5.006,0,0,0,3,9V31a5.006,5.006,0,0,0,5,5H19v2H10.667A3.671,3.671,0,0,0,7,41.667,2.336,2.336,0,0,0,9.333,44H38.667A2.336,2.336,0,0,0,41,41.667,3.671,3.671,0,0,0,37.333,38H29V36H40a5.006,5.006,0,0,0,5-5V9A5.006,5.006,0,0,0,40,4ZM8,6H40a3,3,0,0,1,3,3V29H5V9A3,3,0,0,1,8,6ZM39,41.667a.333.333,0,0,1-.333.333H9.333A.333.333,0,0,1,9,41.667,1.669,1.669,0,0,1,10.667,40H37.333A1.669,1.669,0,0,1,39,41.667ZM27,38H21V36h6Zm13-4H8a3,3,0,0,1-3-3H43A3,3,0,0,1,40,34Z"/><path class="cls-9" d="M35,21a6,6,0,1,0-6-6A6.006,6.006,0,0,0,35,21Zm4-6a3.962,3.962,0,0,1-.116.916L36,14.4V11.142A4,4,0,0,1,39,15Zm-5-3.858V15a1,1,0,0,0,.534.885l3.413,1.8A3.989,3.989,0,1,1,34,11.142Z"/><path class="cls-9" d="M8.5,21h3A1.5,1.5,0,0,0,13,19.5v-5A1.5,1.5,0,0,0,11.5,13h-3A1.5,1.5,0,0,0,7,14.5v5A1.5,1.5,0,0,0,8.5,21ZM9,15h2v4H9Z"/><path class="cls-9" d="M15.5,21h3A1.5,1.5,0,0,0,20,19.5V9.5A1.5,1.5,0,0,0,18.5,8h-3A1.5,1.5,0,0,0,14,9.5v10A1.5,1.5,0,0,0,15.5,21ZM16,10h2v9H16Z"/><path class="cls-9" d="M22.5,21h3A1.5,1.5,0,0,0,27,19.5v-7A1.5,1.5,0,0,0,25.5,11h-3A1.5,1.5,0,0,0,21,12.5v7A1.5,1.5,0,0,0,22.5,21Zm.5-8h2v6H23Z"/><path class="cls-9" d="M39,22H31a1,1,0,0,0,0,2h8a1,1,0,0,0,0-2Z"/><path class="cls-9" d="M36,25H31a1,1,0,0,0,0,2h5a1,1,0,0,0,0-2Z"/><path class="cls-9" d="M8,24H26a1,1,0,0,0,0-2H8a1,1,0,0,0,0,2Z"/><path class="cls-9" d="M8,27H23a1,1,0,0,0,0-2H8a1,1,0,0,0,0,2Z"/></svg>